<svg width="19" height="17" viewBox="0 0 19 17" fill="none" xmlns="http://www.w3.org/2000/svg">
<g clip-path="url(#clip0_49_1401)">
<path d="M12.3107 9.20841C12.9045 9.20841 13.427 8.918 13.6962 8.47883L16.5303 3.88175C16.8232 3.41425 16.4432 2.83341 15.8416 2.83341H4.12491L3.38074 1.41675H0.791992V2.83341H2.37533L5.22533 8.20966L4.15658 9.938C3.57866 10.8872 4.33866 12.0417 5.54199 12.0417H15.042V10.6251H5.54199L6.41283 9.20841H12.3107ZM4.87699 4.25008H14.4957L12.3107 7.79175H6.75324L4.87699 4.25008ZM5.54199 12.7501C4.67116 12.7501 3.96658 13.3876 3.96658 14.1667C3.96658 14.9459 4.67116 15.5834 5.54199 15.5834C6.41283 15.5834 7.12533 14.9459 7.12533 14.1667C7.12533 13.3876 6.41283 12.7501 5.54199 12.7501ZM13.4587 12.7501C12.5878 12.7501 11.8832 13.3876 11.8832 14.1667C11.8832 14.9459 12.5878 15.5834 13.4587 15.5834C14.3295 15.5834 15.042 14.9459 15.042 14.1667C15.042 13.3876 14.3295 12.7501 13.4587 12.7501Z" fill="white"/>
</g>
<defs>
<clipPath id="clip0_49_1401">
<rect width="19" height="17" fill="white"/>
</clipPath>
</defs>
</svg>
